<mxfile host="Electron" agent="Mozilla/5.0 (Windows NT 10.0; Win64; x64) AppleWebKit/537.36 (KHTML, like Gecko) draw.io/24.7.5 Chrome/126.0.6478.183 Electron/31.3.0 Safari/537.36" version="24.7.5">
  <diagram name="Seite-1" id="QBLZULU6C8_MBZ-O-W6B">
    <mxGraphModel dx="493" dy="289" grid="1" gridSize="10" guides="1" tooltips="1" connect="1" arrows="1" fold="1" page="1" pageScale="1" pageWidth="827" pageHeight="1169" math="0" shadow="0">
      <root>
        <mxCell id="0" />
        <mxCell id="1" parent="0" />
        <mxCell id="tDjQ95ZLs90dbmKaRWbV-1" value="Master&lt;div&gt;(MCU)&lt;/div&gt;" style="rounded=1;whiteSpace=wrap;html=1;strokeColor=#1BA1E2;" vertex="1" parent="1">
          <mxGeometry x="160" y="210" width="120" height="60" as="geometry" />
        </mxCell>
        <mxCell id="tDjQ95ZLs90dbmKaRWbV-2" value="Slave&lt;div&gt;(LCD-Display)&lt;/div&gt;" style="rounded=1;whiteSpace=wrap;html=1;strokeColor=#1BA1E2;" vertex="1" parent="1">
          <mxGeometry x="320" y="330" width="120" height="60" as="geometry" />
        </mxCell>
        <mxCell id="tDjQ95ZLs90dbmKaRWbV-3" value="" style="endArrow=none;html=1;rounded=0;exitX=1;exitY=0.25;exitDx=0;exitDy=0;" edge="1" parent="1" source="tDjQ95ZLs90dbmKaRWbV-1">
          <mxGeometry width="50" height="50" relative="1" as="geometry">
            <mxPoint x="390" y="340" as="sourcePoint" />
            <mxPoint x="590" y="225" as="targetPoint" />
          </mxGeometry>
        </mxCell>
        <mxCell id="tDjQ95ZLs90dbmKaRWbV-4" value="" style="endArrow=none;html=1;rounded=0;exitX=1;exitY=0.75;exitDx=0;exitDy=0;" edge="1" parent="1" source="tDjQ95ZLs90dbmKaRWbV-1">
          <mxGeometry width="50" height="50" relative="1" as="geometry">
            <mxPoint x="290" y="250" as="sourcePoint" />
            <mxPoint x="590" y="255" as="targetPoint" />
          </mxGeometry>
        </mxCell>
        <mxCell id="tDjQ95ZLs90dbmKaRWbV-5" value="" style="endArrow=none;html=1;rounded=0;exitX=0.25;exitY=0;exitDx=0;exitDy=0;" edge="1" parent="1" source="tDjQ95ZLs90dbmKaRWbV-2">
          <mxGeometry width="50" height="50" relative="1" as="geometry">
            <mxPoint x="390" y="340" as="sourcePoint" />
            <mxPoint x="350" y="225" as="targetPoint" />
          </mxGeometry>
        </mxCell>
        <mxCell id="tDjQ95ZLs90dbmKaRWbV-6" value="" style="endArrow=none;html=1;rounded=0;exitX=0.75;exitY=0;exitDx=0;exitDy=0;startSize=6;" edge="1" parent="1" source="tDjQ95ZLs90dbmKaRWbV-2">
          <mxGeometry width="50" height="50" relative="1" as="geometry">
            <mxPoint x="400" y="360" as="sourcePoint" />
            <mxPoint x="410" y="255" as="targetPoint" />
          </mxGeometry>
        </mxCell>
        <mxCell id="tDjQ95ZLs90dbmKaRWbV-7" value="" style="ellipse;whiteSpace=wrap;html=1;aspect=fixed;" vertex="1" parent="1">
          <mxGeometry x="405" y="250" width="10" height="10" as="geometry" />
        </mxCell>
        <mxCell id="tDjQ95ZLs90dbmKaRWbV-11" value="" style="ellipse;whiteSpace=wrap;html=1;aspect=fixed;" vertex="1" parent="1">
          <mxGeometry x="345" y="220" width="10" height="10" as="geometry" />
        </mxCell>
        <mxCell id="tDjQ95ZLs90dbmKaRWbV-13" value="SDA" style="text;html=1;align=center;verticalAlign=middle;whiteSpace=wrap;rounded=0;" vertex="1" parent="1">
          <mxGeometry x="530" y="200" width="60" height="30" as="geometry" />
        </mxCell>
        <mxCell id="tDjQ95ZLs90dbmKaRWbV-14" value="SCL" style="text;html=1;align=center;verticalAlign=middle;whiteSpace=wrap;rounded=0;" vertex="1" parent="1">
          <mxGeometry x="530" y="230" width="60" height="30" as="geometry" />
        </mxCell>
      </root>
    </mxGraphModel>
  </diagram>
</mxfile>
